<?xml version="1.0" encoding="UTF-8" standalone="no"?>
<svg
   xmlns:dc="http://purl.org/dc/elements/1.1/"
   xmlns:cc="http://creativecommons.org/ns#"
   xmlns:rdf="http://www.w3.org/1999/02/22-rdf-syntax-ns#"
   xmlns:svg="http://www.w3.org/2000/svg"
   xmlns="http://www.w3.org/2000/svg"
   xmlns:sodipodi="http://sodipodi.sourceforge.net/DTD/sodipodi-0.dtd"
   xmlns:inkscape="http://www.inkscape.org/namespaces/inkscape"
   enable-background="new 0 0 515.91 728.5"
   height="2160"
   id="Layer_1"
   version="1.1"
   viewBox="0 0 3840.0002 2160"
   width="3840"
   xml:space="preserve"
   sodipodi:docname="arch_blue.svg"
   inkscape:version="0.92.4 5da689c313, 2019-01-14"><metadata
     id="metadata1613"><rdf:RDF><cc:Work
         rdf:about=""><dc:format>image/svg+xml</dc:format><dc:type
           rdf:resource="http://purl.org/dc/dcmitype/StillImage" /><dc:title></dc:title></cc:Work></rdf:RDF></metadata><sodipodi:namedview
     pagecolor="#ffffff"
     bordercolor="#666666"
     borderopacity="1"
     objecttolerance="10"
     gridtolerance="10"
     guidetolerance="10"
     inkscape:pageopacity="0"
     inkscape:pageshadow="2"
     inkscape:window-width="2528"
     inkscape:window-height="1384"
     id="namedview1611"
     showgrid="false"
     inkscape:pagecheckerboard="false"
     showborder="true"
     borderlayer="false"
     inkscape:zoom="0.32593203"
     inkscape:cx="2273.5832"
     inkscape:cy="795.03543"
     inkscape:window-x="12"
     inkscape:window-y="36"
     inkscape:window-maximized="0"
     inkscape:current-layer="g3824"
     fit-margin-top="0"
     fit-margin-left="0"
     fit-margin-right="0"
     fit-margin-bottom="0" /><defs
     id="defs7" /><g
     id="g3824"
     transform="translate(148.11806,1786.3523)"><rect
       style="fill:#1793d1;fill-opacity:1;stroke:none;stroke-width:3.77952766;stroke-miterlimit:4;stroke-dasharray:none;stroke-opacity:1"
       id="rect2176"
       width="3840"
       x="-148.11806"
       y="-1786.3523"
       height="2160" /><path
       d="m 1771.8337,-962.44802 c -22.793,55.88218 -36.5406,92.43588 -61.9177,146.65696 15.5594,16.49282 34.6578,35.6995 65.6731,57.39171 -33.3447,-13.72118 -56.0899,-27.49687 -73.0876,-41.79196 -32.4777,67.76972 -83.3609,164.30465 -186.6196,349.83907 81.1578,-46.85372 144.0697,-75.73955 202.7007,-86.76162 -2.5174,-10.82832 -3.9491,-22.54127 -3.8518,-34.76244 l 0.096,-2.59996 c 1.288,-51.99556 28.336,-91.98014 60.377,-89.26528 32.041,2.71488 56.9461,47.09176 55.6583,99.08736 -0.2421,9.78393 -1.3456,19.19593 -3.274,27.92549 57.9943,11.34473 120.2337,40.15662 200.2934,86.37645 -15.7864,-29.06347 -29.8769,-55.26206 -43.3328,-80.21359 -21.1951,-16.42777 -43.303,-37.80857 -88.3986,-60.95461 30.9962,8.05409 53.1888,17.34637 70.4876,27.73289 -136.81,-254.71698 -147.8888,-288.56359 -194.8044,-398.66047 z"
       id="path2518"
       style="fill:#ffffff;fill-opacity:1;fill-rule:evenodd;stroke:none;stroke-width:1.48433542"
       inkscape:connector-curvature="0" /></g></svg>